<?xml version="1.0" encoding="utf-8"?>
<!-- Generator: Adobe Illustrator 24.1.0, SVG Export Plug-In . SVG Version: 6.00 Build 0)  -->
<svg version="1.1" id="Layer_1" xmlns="http://www.w3.org/2000/svg" xmlns:xlink="http://www.w3.org/1999/xlink" x="0px" y="0px"
	 viewBox="0 0 468 468" style="enable-background:new 0 0 468 468;" xml:space="preserve">
<style type="text/css">
	.st0{fill:#D5A10F;}
	.st1{fill:#00549C;}
</style>
<polygon class="st0" points="210.7,312.3 221.7,321.5 232.5,308.5 221.5,299.4 "/>
<polygon class="st0" points="241.1,231 254.1,237.1 261.2,221.9 248.3,215.8 "/>
<polygon class="st0" points="290.7,242.8 283.5,258 296.5,264.1 303.6,248.9 "/>
<polygon class="st0" points="223.9,276.9 213.2,289.8 224.2,298.9 234.9,286 "/>
<path class="st0" d="M179.9,172.5c0,0,2.9-2.3,1.9-3.5c-0.5-0.6-3.2,1.5-3.2,1.5s-8,5.7-11.3,13.3c-2,4.6-1.9,9.6-0.7,12.1
	c1.1,2.4,3.8,4.8,7.3,2c2.5-2,3.5-4.7,4.1-7c0.3-1.4,0.4-2.3,0.4-2.9c0-0.9-0.3-1.6-1.1-1.4c-2.3,0.7-0.9,3.9-2.6,5.4
	c-1.3,0.8-4.5,0.3-5.2-2.9c-0.7-3.2,1.8-7.4,4.1-10.2C175.9,176.1,179.9,172.5,179.9,172.5"/>
<path class="st0" d="M159.8,231.7c8.1-3.8,11.3,5.9,11.3,5.9c-0.9,10.5-13.1,13-20.8,6.3C152,239,154.9,234.5,159.8,231.7
	 M212.7,250.3c0.6-3.7,1.2-4.4,2.3-5.4c3.1-2.6,10.7-9.7,14.3-12.9c2.3-2,4.2-3.9,5.4-6.5c1.6-3.1,0.8-7.1,0.8-7.1l-2.2-15.2
	c-0.6,2.1-3.2,5.2-6.9,8.9c-3.9,3.9-14.2,12.7-15.1,13.7c-0.9,1-4.3,3.4-5.7,15c-3.7,31.5-10,46.4-21.1,51.4c-3,1.4-6.2,2-9.9,2.1
	c-20.5-0.2-25.8-25.1-25.7-38.7c0-0.8,0-1.6,0.1-2.4c4.8,6.4,11.8,12.7,20.4,11.4c13.8-2.1,9.5-25.4,7.5-30.8
	c-2-5.4-7.3-21.6-18.9-20.8c-8.2,0.6-12,10.2-13.8,18.3c-1.6-6.4-2.4-13.9-1.9-19.8c1.2-14.1,6-31.7,26.6-49
	c14.6-12.3,31.2-21.1,40.4-28.4c5.9-4.6,9.5-9.8,11.5-14.6c-0.6,4.7-1.7,9.8-4,15.7c-8.5,22.3-34.3,59.2-34.7,111.3
	c0,16,1.5,29.9,4.1,41.8c1.4-1,2.7-2.2,4-3.7c-1.8-8.5-2.8-17.9-2.8-27.9c0-52,25.6-88.8,34-111.1c4.4-11.7,4.5-20.3,4.5-28.7
	c0-10.4-2.3-21.2-4.5-25.4c-2.4-4.2-5.5-6-10.1-5.9c-5.6,0.2-9.9,4.8-9.8,10.4c0.2,5.5,4.8,9.9,10.3,9.7c3-0.1,5.7-1.5,7.4-3.6
	l0.2-0.2c1.2,8-2.7,14.4-11.6,21.8c-9.1,7.7-30.5,17.7-45.7,29.7c-21.4,16.9-26.4,35.3-27.7,50.2c-0.6,6.6,0.4,15.4,2.2,22.6
	c2.3,9.1,5.6,16,5.6,16s0.2,0.3,0.4,0.8c-0.5,9.9,0.4,27.1,6,40c7.5,16.8,20.9,30.5,40.2,26.5C208.3,305,210.4,273.4,212.7,250.3"/>
<path class="st0" d="M221.8,242.6l-5.2,4.7c5.5,12.8,13.8,23.9,23.3,32c1-6.7,2.1-11.4,3.1-14.8
	C233.2,257.6,226.3,250.1,221.8,242.6"/>
<path class="st0" d="M296.7,162.9c1.9,6.1,11.7,40.5,3.8,54.9c-2.4,5.8-7,13-15.4,21.7c-13.6,14-22.7,22.2-26.9,30.7
	c-3.3,7.5-5.2,28.4-5.6,32.2c-0.8,7.7-1.7,15.6-2.9,22.7c-2.4,14.2-10.1,19-19.7,19c-12.8,0-27.3-10.5-37-33.3
	c1.8-0.8,3.4-1.8,4.8-2.9c7.1,14.4,17,22.4,26.6,20.3l0,0c0.5-0.1,1.1-0.2,1.6-0.4c10.1-3.7,12.5-16.7,13.4-24.9
	c0.4-3.6,1.6-11.7,2.7-18.4c1.4-11.5,3.1-18,4.5-21.8c1-3.1,2.9-7,4-8.8c4.6-8,13.2-16.6,26.3-29.1c2-2,3.9-3.8,5.5-5.6
	c6.9-7.9,16.3-19.7,14.5-32.1c-7.7,10.1-24.9,16.9-31.1,29c-1.6-4.6-3.9-11.5-4.3-13.3c-0.2-1.1-2.2-6.7,3.4-13.1
	c6.6-7.5,10-15.2,9.6-26c-0.4-4.4-2.1-8.8-4.8-13.3c-8.2-13.6-22.2-26.8-30.5-35.7c2.3,12.2,0.8,34.5-11,56.4
	c-8.1,15-14.8,31.7-13.7,48.3c-2.1,2-3.9,3.6-4.7,4.4c-0.7-4.6-1.1-9.4-1.1-14.2c0-21.2,9.2-38.6,16.3-55.2c8.7-20.4,12-33.6,9-44.6
	c-1.2-4.4-2.5-6.2-5-13.5c-3.4-9.5-1.9-19.5,6-30.3c-5.9-10.3-8.1-19.4-8.1-27.1c0-12.5,4.3-20.6,9.4-24.2c3.6-2.6,5-2.4,5.5-2.3
	c0.5,0.1,0.8,1,0.1,1.3c-1.2,0.6-2.6,1.6-3.7,2.5c-5,4.1-7.5,13.5-3.6,25.6c2,6.2,5.8,13.4,12.5,21.7
	c20.9,26.2,54.9,66.7,73.3,107.7c11.5,23.3,13.5,45.5,13.5,45.5c4.9,53.2-21.7,78.6-55.7,78.2c-0.5,0-1,0-1.4,0l0,0
	c-6.6-0.3-13.4-1.9-19.6-4.5c1-7.7,2.1-13.2,3.2-16.7c0.3,0.1,0.5,0.1,0.8,0.2l0,0c41.4,11.3,69-28.8,61.7-68.2
	c-2-9-5.6-18.5-10.2-28.1c-18.4-38.1-53.5-78-72.1-103.2c-1.1-1.5-2.1-2.9-3-4.4c-5.1,6.2-9.7,16,4,31.1
	c10.6,11.7,33.9,31.9,39.8,54.7l0,0c0.1,0.3,0.2,0.6,0.2,1v0c1.3,5.7,2.2,12.5-1.1,21.5c5.8-4.2,12.1-9.4,15.5-15.1
	c0,0,0-0.1,0.1-0.1c0.2-0.2,0.2-0.3,0.4-0.3C296.6,162.6,296.7,162.7,296.7,162.9"/>
<polygon class="st1" points="135.8,410.5 122.3,410.5 122.3,377.2 111.2,377.2 111.2,420.1 135.8,420.1 "/>
<path class="st1" d="M156.6,420.4v-43.2h-11v40.1c0,6.5-2.4,8.9-7.6,7.4c-0.3-0.1-0.6-0.2-0.9-0.3l-2.6,9.3c0.6,0.3,1.2,0.5,1.8,0.8
	C148.5,439.1,156.6,432.3,156.6,420.4"/>
<polygon class="st1" points="280.6,411 262.4,411 262.4,403.5 276.8,403.5 276.8,394.4 262.4,394.4 262.4,386.6 279.1,386.6 
	279.1,377.2 251.5,377.2 251.5,420.1 280.6,420.1 "/>
<polygon class="st1" points="318.5,411 300.4,411 300.4,403.5 314.7,403.5 314.7,394.4 300.4,394.4 300.4,386.6 317,386.6 
	317,377.2 289.4,377.2 289.4,420.1 318.5,420.1 "/>
<path class="st1" d="M79.1,402.4l4.1-13.6l4.1,13.6H79.1z M77.1,377.2l-14.6,42.9h11l2.5-7.9h14.1l2.4,7.9h11.7l-14.9-42.9H77.1z"/>
<path class="st1" d="M179.7,402.4l4.1-13.6l4.1,13.6H179.7z M193.1,420.1h11.7l-14.9-42.9h-12.2l-14.6,42.9h11l2.5-7.9h14.1
	L193.1,420.1z"/>
<path class="st1" d="M380.8,402.4l4.1-13.6l4.1,13.6H380.8z M390.9,377.2h-12.2l-14.6,42.9h11l2.5-7.9h14.1l2.4,7.9h11.7
	L390.9,377.2z"/>
<path class="st1" d="M345.9,393.3c-0.6,0.8-1.5,1.1-3.6,1.3h-1H338v-8.1h3.3c0.3,0,0.5,0.1,0.8,0.1c1.7,0.1,2.4,0.2,3.1,0.7
	C347.1,388.5,347.5,391.4,345.9,393.3 M355.1,404.5c-1.6-3.8-2.2-4.6-3.7-5.3c0.3-0.1,0.5-0.2,0.7-0.3c4.8-2.2,7.1-7.7,5.3-13.9
	c-1.5-5.1-5.4-7.9-12.8-7.9h-17.4v42.9h11v-16h2.5c1.8,0,2.8,0.8,3.8,3l0.6,1.4l0.3,0.8l4.2,10.8h11.4l-5.4-14.1
	C355.5,405.5,355.3,405,355.1,404.5"/>
<polygon class="st1" points="242.2,410.6 226.2,410.6 241.8,388.1 241.8,377.2 212.3,377.2 212.3,386.6 227.5,386.6 211.8,409.1 
	211.8,420.1 242.2,420.1 "/>
</svg>
